<svg xmlns="http://www.w3.org/2000/svg" xmlns:svg="http://www.w3.org/2000/svg" xmlns:xlink="http://www.w3.org/1999/xlink" id="svg4454" width="26.667" height="26.667" version="1.1" viewBox="0 0 25 25"><defs id="defs4456"><linearGradient id="linearGradient4148" x1="795" x2="795" y1="322" y2="297" gradientTransform="matrix(0.92,0,0,0.92,4.6399743,43.76001)" gradientUnits="userSpaceOnUse" xlink:href="#linearGradient4142"/><linearGradient id="linearGradient4142"><stop id="stop4144" offset="0" stop-color="#1f6afa" stop-opacity="1"/><stop id="stop4146" offset="1" stop-color="#538dfb" stop-opacity="1"/></linearGradient></defs><metadata id="metadata4459"/><g id="layer1" transform="translate(-334,-340.36221)"><g id="g4433" transform="translate(-390,24.362205)"><circle id="path4186" cx="736.5" cy="328.5" r="12.5" fill="#000" fill-opacity=".363" stroke="none" stroke-dasharray="none" stroke-dashoffset="0" stroke-linecap="butt" stroke-linejoin="miter" stroke-miterlimit="4" stroke-opacity=".784" stroke-width="1" opacity="1"/><circle id="path4140" cx="736.5" cy="328.5" r="11.5" fill="url(#linearGradient4148)" fill-opacity="1" stroke="none" stroke-dasharray="none" stroke-dashoffset="0" stroke-linecap="butt" stroke-linejoin="miter" stroke-miterlimit="4" stroke-opacity=".784" stroke-width="1" opacity="1"/><path id="path4140-2" fill="#fff" fill-opacity="1" stroke="none" stroke-dasharray="none" stroke-dashoffset="0" stroke-linecap="butt" stroke-linejoin="miter" stroke-miterlimit="4" stroke-opacity=".784" stroke-width="1" d="m 736.5,317 a 11.5,11.5 0 0 0 -11.5,11.5 11.5,11.5 0 0 0 0.0215,0.57812 A 11.5,11.5 0 0 1 736.5,318 11.5,11.5 0 0 1 747.97852,328.92188 11.5,11.5 0 0 0 748,328.5 11.5,11.5 0 0 0 736.5,317 Z" opacity=".3"/></g></g></svg>