<svg xmlns="http://www.w3.org/2000/svg" xmlns:svg="http://www.w3.org/2000/svg" xmlns:xlink="http://www.w3.org/1999/xlink" id="svg2" width="14" height="14" version="1.1"><defs id="defs4"><linearGradient id="linearGradient3796" x1="8" x2="8" y1="2" y2="15" gradientTransform="translate(-1,1037.3622)" gradientUnits="userSpaceOnUse" xlink:href="#linearGradient3845-2"/><linearGradient id="linearGradient3969"><stop id="stop3971" offset="0" stop-color="#e8ecef" stop-opacity="1"/><stop id="stop3973" offset="1" stop-color="#f5f7f4" stop-opacity="1"/></linearGradient><linearGradient id="linearGradient3845-2"><stop id="stop3847-7" offset="0" stop-color="#4080fb" stop-opacity=".471"/><stop id="stop3849-1" offset="1" stop-color="#4080fb" stop-opacity=".745"/></linearGradient><linearGradient id="linearGradient4048" x1="8" x2="8" y1="14" y2="3" gradientUnits="userSpaceOnUse" xlink:href="#linearGradient3969"/><linearGradient id="linearGradient4165"><stop id="stop4167" offset="0" stop-color="#3c3b40" stop-opacity="1"/><stop id="stop4169" offset="1" stop-color="#3a3c3b" stop-opacity="1"/></linearGradient><linearGradient id="linearGradient4100" x1="8" x2="8" y1="10" y2="6" gradientUnits="userSpaceOnUse" xlink:href="#linearGradient4165"/></defs><metadata id="metadata7"/><g id="layer1" transform="translate(0,-1038.3622)"><path id="path3017" fill="url(#linearGradient3796)" fill-opacity="1" stroke="none" d="m 7,1038.3622 c -3.8659932,0 -7,3.134 -7,7 0,3.866 3.1340068,7 7,7 3.865993,0 7,-3.134 7,-7 0,-3.866 -3.134007,-7 -7,-7 z m 0,1 c 3.313708,0 6,2.6863 6,6 0,3.3137 -2.686292,6 -6,6 -3.3137085,0 -6,-2.6863 -6,-6 0,-3.3137 2.6862915,-6 6,-6 z"/><path id="path3854" fill="url(#linearGradient4048)" fill-opacity="1" stroke="none" d="M 14,8 A 6,6 0 1 1 2,8 6,6 0 1 1 14,8 z" transform="translate(-1,1037.3622)"/><path id="path3798" fill="#fff" fill-opacity="1" stroke="none" d="m 7,1039.3622 c -3.313708,0 -6,2.6863 -6,6 0,0.1245 0.023779,0.2524 0.03125,0.375 0.30726,-3.0255 2.862148,-5.375 5.96875,-5.375 3.106602,0 5.66149,2.3495 5.96875,5.375 0.0075,-0.1226 0.03125,-0.2505 0.03125,-0.375 0,-3.3137 -2.686292,-6 -6,-6 z"/><path id="path3826" fill="#fff" fill-opacity="1" stroke="none" d="M 0.03125,1045.8622 C 0.01958,1046.0275 0,1046.194 0,1046.3622 c 0,3.866 3.1340068,7 7,7 3.865993,0 7,-3.134 7,-7 0,-0.1682 -0.01958,-0.3347 -0.03125,-0.5 -0.256529,3.6325 -3.270982,6.5 -6.96875,6.5 -3.6977678,0 -6.7122214,-2.8675 -6.96875,-6.5 z" opacity=".3"/><path id="path4092" fill="url(#linearGradient4100)" fill-opacity="1" stroke="none" d="M 10,8 A 2,2 0 1 1 6,8 2,2 0 1 1 10,8 z" transform="translate(-1,1037.3622)"/><path id="path4092-5" fill="#242328" fill-opacity="1" stroke="none" d="m 7,1043.3622 c -1.1045695,0 -2,0.8954 -2,2 0,0.1726 0.021396,0.3402 0.0625,0.5 0.2219627,-0.8627 1.0055195,-1.5 1.9375,-1.5 0.9319805,0 1.7155373,0.6373 1.9375,1.5 0.041104,-0.1598 0.0625,-0.3274 0.0625,-0.5 0,-1.1046 -0.8954305,-2 -2,-2 z"/><path id="path4092-5-6" fill="#fff" fill-opacity="1" stroke="none" d="m 7,1048.3622 c -1.1045695,0 -2,-0.8954 -2,-2 0,-0.1726 0.021396,-0.3402 0.0625,-0.5 0.2219627,0.8627 1.0055195,1.5 1.9375,1.5 0.9319805,0 1.7155373,-0.6373 1.9375,-1.5 0.041104,0.1598 0.0625,0.3274 0.0625,0.5 0,1.1046 -0.8954305,2 -2,2 z"/></g></svg>