<svg xmlns="http://www.w3.org/2000/svg" xmlns:svg="http://www.w3.org/2000/svg" xmlns:xlink="http://www.w3.org/1999/xlink" id="svg2" width="14" height="14" version="1.1"><defs id="defs4"><linearGradient id="linearGradient3875"><stop id="stop3877" offset="0" stop-color="#000" stop-opacity=".55"/><stop id="stop3879" offset=".462" stop-color="#000" stop-opacity=".275"/><stop id="stop3881" offset=".974" stop-color="#000" stop-opacity=".255"/><stop id="stop3883" offset="1" stop-color="#000" stop-opacity=".188"/></linearGradient><linearGradient id="linearGradient3796" x1="8" x2="8" y1="2" y2="15" gradientTransform="translate(-1,1037.3622)" gradientUnits="userSpaceOnUse" xlink:href="#linearGradient3875"/></defs><metadata id="metadata7"/><g id="layer1" transform="translate(0,-1038.3622)"><path id="path3017" fill="url(#linearGradient3796)" fill-opacity="1" stroke="none" d="m 7,1038.3622 c -3.8659932,0 -7,3.134 -7,7 0,3.866 3.1340068,7 7,7 3.865993,0 7,-3.134 7,-7 0,-3.866 -3.134007,-7 -7,-7 z m 0,1 c 3.313708,0 6,2.6863 6,6 0,3.3137 -2.686292,6 -6,6 -3.3137085,0 -6,-2.6863 -6,-6 0,-3.3137 2.6862915,-6 6,-6 z"/><path id="path3854" fill="#f4f4f4" fill-opacity="1" stroke="none" d="M 14,8 A 6,6 0 1 1 2,8 6,6 0 1 1 14,8 z" transform="translate(-1,1037.3622)"/><path id="path4092" fill="#aaaaac" fill-opacity="1" stroke="none" d="M 10,8 A 2,2 0 1 1 6,8 2,2 0 1 1 10,8 z" transform="translate(-1,1037.3622)"/><path id="path4092-5" fill="#8e8f93" fill-opacity="1" stroke="none" d="m 7,1043.3622 c -1.1045695,0 -2,0.8954 -2,2 0,0.1726 0.021396,0.3402 0.0625,0.5 0.2219627,-0.8627 1.00552,-1.5 1.9375,-1.5 0.931981,0 1.715537,0.6373 1.9375,1.5 0.0411,-0.1598 0.0625,-0.3274 0.0625,-0.5 0,-1.1046 -0.89543,-2 -2,-2 z"/></g></svg>