<svg xmlns="http://www.w3.org/2000/svg" xmlns:svg="http://www.w3.org/2000/svg" xmlns:xlink="http://www.w3.org/1999/xlink" id="svg2" width="13" height="13" version="1.1"><defs id="defs4"><linearGradient id="linearGradient3819"><stop id="stop3821" offset="0" stop-color="#000" stop-opacity=".447"/><stop id="stop3823" offset=".154" stop-color="#000" stop-opacity=".275"/><stop id="stop3825" offset=".917" stop-color="#000" stop-opacity=".255"/><stop id="stop3827" offset="1" stop-color="#000" stop-opacity=".188"/></linearGradient><linearGradient id="linearGradient3817" x1="7" x2="7" y1="1039.362" y2="1051.362" gradientUnits="userSpaceOnUse" xlink:href="#linearGradient3819"/></defs><metadata id="metadata7"/><g id="layer1" transform="translate(0,-1039.3622)"><rect id="rect3829" width="11" height="11" x="1" y="1" fill="#fff" fill-opacity="1" stroke="#4080fb" stroke-dasharray="none" stroke-dashoffset="0" stroke-linejoin="round" stroke-miterlimit="4" stroke-opacity=".235" stroke-width="0" rx="1" ry="1" transform="translate(0,1039.3622)"/><path id="rect3861" fill="url(#linearGradient3817)" fill-opacity="1" stroke="#000" stroke-dasharray="none" stroke-dashoffset="0" stroke-linejoin="round" stroke-miterlimit="4" stroke-opacity="1" stroke-width="0" d="m 2,1039.3622 c -1.108,0 -2,0.892 -2,2 l 0,9 c 0,1.108 0.892,2 2,2 l 9,0 c 1.108,0 2,-0.892 2,-2 l 0,-9 c 0,-1.108 -0.892,-2 -2,-2 l -9,0 z m 0,1 9,0 c 0.554,0 1,0.446 1,1 l 0,9 c 0,0.554 -0.446,1 -1,1 l -9,0 c -0.554,0 -1,-0.446 -1,-1 l 0,-9 c 0,-0.554 0.446,-1 1,-1 z" opacity="1"/><path id="rect3875-7" fill="#000" fill-opacity=".235" stroke="#000" stroke-dasharray="none" stroke-dashoffset="0" stroke-linejoin="round" stroke-miterlimit="4" stroke-opacity="1" stroke-width="0" d="m 2,1040.3622 c -0.554,0 -1,0.446 -1,1 l 0,1 c 0,-0.554 0.446,-1 1,-1 l 9,0 c 0.554,0 1,0.446 1,1 l 0,-1 c 0,-0.554 -0.446,-1 -1,-1 l -9,0 z" opacity=".4"/></g></svg>