<svg xmlns="http://www.w3.org/2000/svg" xmlns:svg="http://www.w3.org/2000/svg" xmlns:xlink="http://www.w3.org/1999/xlink" id="svg2" width="14" height="14" version="1.1"><defs id="defs4"><linearGradient id="linearGradient3768-6-8"><stop id="stop3770-6-62" offset="0" stop-color="#000" stop-opacity="1"/><stop id="stop3778-2-5" offset=".078" stop-color="#0d0d0d" stop-opacity="1"/><stop id="stop3774-0-7" offset=".974" stop-color="#0d0d0d" stop-opacity="1"/><stop id="stop3776-1-8" offset="1" stop-color="#090909" stop-opacity="1"/></linearGradient><linearGradient id="linearGradient3981" x1="7" x2="7" y1="1039.362" y2="1052.362" gradientUnits="userSpaceOnUse" xlink:href="#linearGradient3768-6-8"/></defs><metadata id="metadata7"/><g id="layer1" transform="translate(0,-1038.3622)"><path id="path3017" fill="url(#linearGradient3981)" fill-opacity="1" stroke="none" d="m 7,1052.3622 c -3.8659932,0 -7,-3.134 -7,-7 0,-3.866 3.1340068,-7 7,-7 3.865993,0 7,3.134 7,7 0,3.866 -3.134007,7 -7,7 z m 0,-1 c 3.313708,0 6,-2.6863 6,-6 0,-3.3137 -2.686292,-6 -6,-6 -3.3137085,0 -6,2.6863 -6,6 0,3.3137 2.6862915,6 6,6 z"/><path id="path3854" fill="#313133" fill-opacity="1" stroke="none" d="m 14,8 c 0,3.313708 -2.686292,6 -6,6 C 4.6862915,14 2,11.313708 2,8 2,4.6862915 4.6862915,2 8,2 c 3.313708,0 6,2.6862915 6,6 z" transform="translate(-1,1037.3622)"/><path id="path3798" fill="#000" fill-opacity="1" stroke="none" d="m 7,1039.3622 c -3.313708,0 -6,2.6863 -6,6 0,0.1245 0.023779,0.2524 0.03125,0.375 0.30726,-3.0255 2.862148,-5.375 5.96875,-5.375 3.106602,0 5.66149,2.3495 5.96875,5.375 0.0075,-0.1226 0.03125,-0.2505 0.03125,-0.375 0,-3.3137 -2.686292,-6 -6,-6 z" opacity=".2"/></g></svg>