<svg xmlns="http://www.w3.org/2000/svg" xmlns:svg="http://www.w3.org/2000/svg" xmlns:xlink="http://www.w3.org/1999/xlink" id="svg2" width="14" height="14" version="1.1"><defs id="defs4"><linearGradient id="linearGradient3796" x1="8" x2="8" y1="2" y2="15" gradientTransform="matrix(1,0,0,-1,-1,1053.3622)" gradientUnits="userSpaceOnUse" xlink:href="#linearGradient3931-4"/><linearGradient id="linearGradient4048" x1="8" x2="8" y1="14" y2="3" gradientUnits="userSpaceOnUse" xlink:href="#linearGradient3969-0-4"/><linearGradient id="linearGradient3931-4"><stop id="stop3933-1" offset="0" stop-color="#5890fb" stop-opacity="1"/><stop id="stop3935-1" offset="1" stop-color="#032c75" stop-opacity=".745"/></linearGradient><linearGradient id="linearGradient3969-0-4"><stop id="stop3971-2-2" offset="0" stop-color="#353537" stop-opacity="1"/><stop id="stop3973-0-5" offset="1" stop-color="#4d4f52" stop-opacity="1"/></linearGradient><linearGradient id="linearGradient3796-15" x1="8" x2="8" y1="2" y2="15" gradientTransform="translate(0,1036.3622)" gradientUnits="userSpaceOnUse" xlink:href="#linearGradient7710"/><linearGradient id="linearGradient7710"><stop id="stop7712" offset="0" stop-color="#000" stop-opacity="1"/><stop id="stop7714" offset=".078" stop-color="#0d0d0d" stop-opacity="1"/><stop id="stop7716" offset=".974" stop-color="#0d0d0d" stop-opacity="1"/><stop id="stop7718" offset="1" stop-color="#090909" stop-opacity="1"/></linearGradient><linearGradient id="linearGradient4048-2" x1="8" x2="8" y1="14" y2="3" gradientUnits="userSpaceOnUse" xlink:href="#linearGradient3969-0-4-3"/><linearGradient id="linearGradient3969-0-4-3"><stop id="stop3971-2-2-7" offset="0" stop-color="#353537" stop-opacity="1"/><stop id="stop3973-0-5-3" offset="1" stop-color="#4d4f52" stop-opacity="1"/></linearGradient><linearGradient id="linearGradient3890" x1="0" x2="16" y1="1044.362" y2="1044.362" gradientTransform="matrix(0,-1,1,0,-1036.3622,1052.3622)" gradientUnits="userSpaceOnUse" xlink:href="#linearGradient7704"/><linearGradient id="linearGradient7704"><stop id="stop7706" offset="0" stop-color="#4080fb" stop-opacity=".745"/><stop id="stop7708" offset="1" stop-color="#4080fb" stop-opacity=".492"/></linearGradient><linearGradient id="linearGradient6935" x1="0" x2="16" y1="1044.362" y2="1044.362" gradientTransform="matrix(0,-1,1,0,-1036.3622,1052.3622)" gradientUnits="userSpaceOnUse" xlink:href="#linearGradient7704"/><linearGradient id="linearGradient3796-15-1" x1="8" x2="8" y1="2" y2="15" gradientTransform="translate(0,1036.3622)" gradientUnits="userSpaceOnUse" xlink:href="#linearGradient7710-1"/><linearGradient id="linearGradient7710-1"><stop id="stop7712-6" offset="0" stop-color="#000" stop-opacity="1"/><stop id="stop7714-7" offset=".078" stop-color="#0d0d0d" stop-opacity="1"/><stop id="stop7716-6" offset=".974" stop-color="#0d0d0d" stop-opacity="1"/><stop id="stop7718-8" offset="1" stop-color="#090909" stop-opacity="1"/></linearGradient><linearGradient id="linearGradient3834" x1="8" x2="8" y1="2" y2="15" gradientTransform="translate(-1,1037.3622)" gradientUnits="userSpaceOnUse" xlink:href="#linearGradient7710-1"/></defs><metadata id="metadata7"/><g id="layer1" transform="translate(0,-1038.3622)"><path id="path3854" fill="url(#linearGradient4048)" fill-opacity="1" stroke="none" d="m 14,8 c 0,3.313708 -2.686292,6 -6,6 C 4.6862915,14 2,11.313708 2,8 2,4.6862915 4.6862915,2 8,2 c 3.313708,0 6,2.6862915 6,6 z" transform="translate(-1,1037.3622)"/><path id="path3798" fill="#fff" fill-opacity="1" stroke="none" d="m 7,1039.3622 c -3.313708,0 -6,2.6863 -6,6 0,0.1245 0.023779,0.2524 0.03125,0.375 0.30726,-3.0255 2.862148,-5.375 5.96875,-5.375 3.106602,0 5.66149,2.3495 5.96875,5.375 0.0075,-0.1226 0.03125,-0.2505 0.03125,-0.375 0,-3.3137 -2.686292,-6 -6,-6 z" opacity=".2"/><path id="path4092-1-0" fill="#eee" fill-opacity="1" stroke="none" d="M 10,8 C 10,9.1045695 9.1045695,10 8,10 6.8954305,10 6,9.1045695 6,8 6,6.8954305 6.8954305,6 8,6 c 1.1045695,0 2,0.8954305 2,2 z" transform="translate(-1,1037.3622)"/><path id="path4092-5-6-12-3" fill="#1a1a1a" fill-opacity="1" stroke="none" d="m 7,1042.3622 c -1.1045695,0 -2,0.8954 -2,2 0,0.1726 0.021396,0.3402 0.0625,0.5 0.2219627,-0.8627 1.0055195,-1.5 1.9375,-1.5 0.9319805,0 1.7155373,0.6373 1.9375,1.5 0.041104,-0.1598 0.0625,-0.3274 0.0625,-0.5 0,-1.1046 -0.8954305,-2 -2,-2 z"/><path id="path4092-5-7-0" fill="#cdcdcd" fill-opacity="1" stroke="none" d="m 7,1043.3622 c -1.1045695,0 -2,0.8954 -2,2 0,0.1726 0.021396,0.3402 0.0625,0.5 0.2219627,-0.8627 1.0055195,-1.5 1.9375,-1.5 0.9319805,0 1.7155373,0.6373 1.9375,1.5 0.041104,-0.1598 0.0625,-0.3274 0.0625,-0.5 0,-1.1046 -0.8954305,-2 -2,-2 z"/><path id="path3017-7-6" fill="url(#linearGradient3834)" fill-opacity="1" stroke="none" d="m 7,1038.3622 c -3.8659932,0 -7,3.134 -7,7 0,3.866 3.1340068,7 7,7 3.865993,0 7,-3.134 7,-7 0,-3.866 -3.134007,-7 -7,-7 z m 0,1 c 3.313708,0 6,2.6863 6,6 0,3.3137 -2.686292,6 -6,6 -3.3137085,0 -6,-2.6863 -6,-6 0,-3.3137 2.6862915,-6 6,-6 z"/></g></svg>