<svg xmlns="http://www.w3.org/2000/svg" xmlns:svg="http://www.w3.org/2000/svg" xmlns:xlink="http://www.w3.org/1999/xlink" id="svg4306" width="17" height="15" enable-background="new" version="1.1"><defs id="defs4308"><linearGradient id="linearGradient3770"><stop id="stop3772" offset="0" stop-color="#000" stop-opacity=".628"/><stop id="stop3774" offset="1" stop-color="#000" stop-opacity=".498"/></linearGradient><linearGradient id="linearGradient4882"><stop id="stop4884" offset="0" stop-color="#fff" stop-opacity="1"/><stop id="stop4886" offset="1" stop-color="#fff" stop-opacity="0"/></linearGradient><linearGradient id="linearGradient3784-6"><stop id="stop3786-4" offset="0" stop-color="#fff" stop-opacity=".216"/><stop id="stop3788-6" offset="1" stop-color="#fff" stop-opacity="0"/></linearGradient><linearGradient id="linearGradient4257" x1="8" x2="8" y1="3" y2="11" gradientUnits="userSpaceOnUse" xlink:href="#linearGradient3784-6"/><linearGradient id="linearGradient4281" x1="8" x2="8" y1="1" y2="15" gradientTransform="matrix(0.85714286,0,0,0.85714286,1.1428571,1037.5051)" gradientUnits="userSpaceOnUse" xlink:href="#linearGradient3770"/><linearGradient id="linearGradient4283" x1="8" x2="8" y1="16" y2="8" gradientTransform="matrix(0.875,0,0,0.875,1,0)" gradientUnits="userSpaceOnUse" xlink:href="#linearGradient4882"/></defs><metadata id="metadata4311"/><g id="layer1" opacity=".616" transform="translate(0,-1037.3622)"><path id="path4878" fill="url(#linearGradient4283)" fill-opacity="1" stroke="#000" stroke-dasharray="none" stroke-linejoin="miter" stroke-miterlimit="4" stroke-opacity="1" stroke-width="0" d="M 8 0 C 4.1340068 5.9211895e-16 1 3.1340068 1 7 C 1 10.865993 4.1340068 14 8 14 C 11.865993 14 15 10.865993 15 7 C 15 3.1340068 11.865993 -1.5543122e-15 8 0 z M 8 1 C 11.313708 1 14 3.6862915 14 7 C 14 10.313708 11.313708 13 8 13 C 4.6862915 13 2 10.313708 2 7 C 2 3.6862915 4.6862915 1 8 1 z" opacity=".25" transform="translate(0,1037.3622)"/><path id="path4880" fill="url(#linearGradient4281)" fill-opacity="1" stroke="#000" stroke-dasharray="none" stroke-linejoin="miter" stroke-miterlimit="4" stroke-opacity="1" stroke-width="0" d="m 8,1038.3622 c -3.3137085,0 -6,2.6863 -6,6 0,3.3137 2.6862915,6 6,6 3.313709,0 6,-2.6863 6,-6 0,-3.3137 -2.686291,-6 -6,-6 z m 0,2 c 2.209139,0 4,1.7909 4,4 0,2.2091 -1.790861,4 -4,4 -2.209139,0 -4,-1.7909 -4,-4 0,-2.2091 1.790861,-4 4,-4 z"/><path id="path3812" fill="#000" fill-opacity=".238" stroke="none" d="m 8,1039.3622 c -2.7614237,0 -5,2.2386 -5,5 0,2.7614 2.2385763,5 5,5 2.761424,0 5,-2.2386 5,-5 0,-2.7614 -2.238576,-5 -5,-5 z m 0,1 c 2.209139,0 4,1.7909 4,4 0,2.2091 -1.790861,4 -4,4 -2.209139,0 -4,-1.7909 -4,-4 0,-2.2091 1.790861,-4 4,-4 z"/><path id="path3847" fill="url(#linearGradient4257)" fill-opacity="1" stroke="none" d="M 12,7 C 12,9.209139 10.209139,11 8,11 5.790861,11 4,9.209139 4,7 4,4.790861 5.790861,3 8,3 c 2.209139,0 4,1.790861 4,4 z" opacity=".459" transform="translate(0,1037.3622)"/><path id="path3847-2" fill="#fff" fill-opacity="1" stroke="none" d="m 8,1040.3622 c -2.209139,0 -4,1.7909 -4,4 0,0.1701 0.04189,0.3355 0.0625,0.5 0.247066,-1.972 1.898481,-3.5 3.9375,-3.5 2.039019,0 3.690434,1.528 3.9375,3.5 0.02061,-0.1645 0.0625,-0.3299 0.0625,-0.5 0,-2.2091 -1.790861,-4 -4,-4 z" opacity=".25"/></g></svg>