<svg xmlns="http://www.w3.org/2000/svg" xmlns:svg="http://www.w3.org/2000/svg" xmlns:xlink="http://www.w3.org/1999/xlink" id="svg2" width="30" height="31" version="1.1"><metadata id="metadata18"/><defs id="defs4"><linearGradient id="linearGradient3839-64"><stop id="stop3842-0" offset="0" stop-color="#444547" stop-opacity="1"/><stop id="stop3844-1" offset="1" stop-color="#58595c" stop-opacity="1"/></linearGradient><linearGradient id="linearGradient3769" x1="0" x2="0" y1="31" y2="2" gradientTransform="matrix(1.0476191,0,0,1,12.952389,0)" gradientUnits="userSpaceOnUse" xlink:href="#linearGradient3839-64"/></defs><g id="g3863" transform="translate(3,1)"><path id="rect3837" fill="url(#linearGradient3769)" fill-opacity="1" stroke="#4080fb" stroke-dasharray="none" stroke-dashoffset="0" stroke-linecap="butt" stroke-linejoin="miter" stroke-miterlimit="4" stroke-opacity=".846" stroke-width="0" d="m -6,2 c -1.108,0 -2,0.892 -2,2 l 0,25 -2,0 0,1 2,0 0,4 c 0,1.108 0.892,2 2,2 l 40,0 c 1.108,0 2,-0.892 2,-2 l 0,-4 2,0 0,-1 -2,0 0,-25 C 36,2.892 35.108,2 34,2 L -6,2 z" opacity=".5" transform="translate(19,-1)"/><path id="rect3837-6" fill="#fff" fill-opacity="1" stroke="#4080fb" stroke-dasharray="none" stroke-dashoffset="0" stroke-linecap="butt" stroke-linejoin="miter" stroke-miterlimit="4" stroke-opacity=".846" stroke-width="0" d="m 14,1 c -1.108,0 -2,0.892 -2,2 l 0,1 c 0,-1.108 0.892,-2 2,-2 l 38,0 c 1.108,0 2,0.892 2,2 L 54,3 C 54,1.892 53.108,1 52,1 L 14,1 z" opacity=".075"/><g id="g3809"><path id="rect3978" fill="#262627" fill-opacity="1" stroke="#4080fb" stroke-dasharray="none" stroke-dashoffset="0" stroke-linecap="butt" stroke-linejoin="miter" stroke-miterlimit="4" stroke-opacity=".846" stroke-width="0" d="M 14,0 C 12.338,0 10.999999,1.338 10.999999,3 L 11,26 55.000001,26 55,3 C 55,1.338 53.662,0 52,0 z m 0,1 38,0 c 1.108,0 2,0.892 2,2 l 10e-7,23 -42,0 L 12,3 c 0,-1.108 0.892,-2 2,-2 z"/><path id="path3884-95" fill="#262627" fill-opacity="1" stroke="#fff" stroke-dasharray="none" stroke-dashoffset="0" stroke-linejoin="round" stroke-miterlimit="4" stroke-opacity="1" stroke-width="0" d="m 9,29 0,-1 c 1.10457,0 2,-0.8954 2,-2 l 1,0 c 0,1.6569 -1.34315,3 -3,3 z" display="inline"/><path id="path3884-95-0" fill="#262627" fill-opacity="1" stroke="#fff" stroke-dasharray="none" stroke-dashoffset="0" stroke-linejoin="round" stroke-miterlimit="4" stroke-opacity="1" stroke-width="0" d="m 57,29 0,-1 c -1.10457,0 -2,-0.8954 -2,-2 l -1,0 c 0,1.6569 1.34315,3 3,3 z" display="inline"/></g></g></svg>