<svg xmlns="http://www.w3.org/2000/svg" xmlns:svg="http://www.w3.org/2000/svg" id="svg2" width="150" height="150" version="1.1" viewBox="0 0 150 150"><metadata id="metadata16"/><defs id="defs4"><clipPath id="clipPath6"><path id="path8" d="m 440,80.683594 c -1.84957,0 -3.31641,1.466834 -3.31641,3.316406 l 0,44 c 0,1.84957 1.46684,3.31641 3.31641,3.31641 l 44,0 c 1.84957,0 3.31641,-1.46684 3.31641,-3.31641 l 0,-44 c 0,-1.849572 -1.46684,-3.316406 -3.31641,-3.316406 l -44,0 z"/></clipPath><clipPath id="clipPath10"><rect id="rect12" width="148" height="148" x="353" y="316" fill="#f0f" color="#000" opacity=".8" rx="12"/></clipPath></defs><rect id="rect2995" width="150" height="149" x="0" y="0" fill="#000" fill-opacity="1" stroke-dasharray="none" stroke-miterlimit="4" stroke-width="0" opacity=".45" ry="2"/><path id="rect2995-4" fill="#000" fill-opacity="1" stroke-dasharray="none" stroke-miterlimit="4" stroke-width="0" d="m 1.99999,0 c -1.108,0 -2,0.892 -2,2 l 0,145 c 0,1.108 0.892,2 2,2 l 146,0 c 1.108,0 2,-0.892 2,-2 l 0,-145 c 0,-1.108 -0.892,-2 -2,-2 l -146,0 z m 0,1 146,0 c 0.554,0 1,0.446 1,1 l 0,145 c 0,0.554 -0.446,1 -1,1 l -146,0 c -0.554,0 -1,-0.446 -1,-1 l 0,-145 c 0,-0.554 0.446,-1 1,-1 z" opacity=".4"/></svg>