<svg xmlns="http://www.w3.org/2000/svg" xmlns:svg="http://www.w3.org/2000/svg" id="svg2" width="54" height="54" version="1.1" viewBox="0 0 54 54"><metadata id="metadata12"/><defs id="defs4"><clipPath id="clipPath6"><path id="path8" d="m 440,81.001953 c -1.67866,0 -2.99805,1.319387 -2.99805,2.998047 l 0,44 c 0,1.67866 1.31939,2.99805 2.99805,2.99805 l 44,0 c 1.67866,0 2.99805,-1.31939 2.99805,-2.99805 l 0,-44 c 0,-1.67866 -1.31939,-2.998047 -2.99805,-2.998047 l -44,0 z"/></clipPath></defs><rect id="rect3759" width="54" height="52.97" x="0" y="0" fill="#000" fill-opacity="1" stroke-dasharray="none" stroke-miterlimit="4" stroke-width="0" opacity=".45" ry="1.962"/><path id="rect3772" fill="#000" fill-opacity="1" stroke-dasharray="none" stroke-miterlimit="4" stroke-width="0" d="M 1.9687495,0 C 0.8818795,0 -5e-7,0.88187698 -5e-7,1.96875 l 0,49.0625 C -5e-7,52.118123 0.8818795,53 1.9687495,53 l 50.0624995,0 c 1.086873,0 1.96875,-0.881877 1.96875,-1.96875 l 0,-49.0625 C 53.999999,0.88187698 53.118122,0 52.031249,0 L 1.9687495,0 z m 0.03125,0.99999998 49.9999995,0 c 0.554,0 1,0.44600002 1,1.00000002 l 0,49 c 0,0.554 -0.446,1 -1,1 L 1.9999995,52 c -0.554,0 -1,-0.446 -1,-1 l 0,-49 c 0,-0.554 0.446,-1.00000002 1,-1.00000002 z" opacity=".4"/></svg>