<svg xmlns="http://www.w3.org/2000/svg" xmlns:svg="http://www.w3.org/2000/svg" xmlns:xlink="http://www.w3.org/1999/xlink" id="svg4306" width="24" height="24" enable-background="new" version="1.1"><defs id="defs4308"><linearGradient id="linearGradient3770"><stop id="stop3772" offset="0" stop-color="#000" stop-opacity=".628"/><stop id="stop3774" offset="1" stop-color="#000" stop-opacity=".498"/></linearGradient><linearGradient id="linearGradient4882"><stop id="stop4884" offset="0" stop-color="#fff" stop-opacity="1"/><stop id="stop4886" offset="1" stop-color="#fff" stop-opacity="0"/></linearGradient><linearGradient id="linearGradient3784-6"><stop id="stop3786-4" offset="0" stop-color="#fff" stop-opacity=".216"/><stop id="stop3788-6" offset="1" stop-color="#fff" stop-opacity="0"/></linearGradient><linearGradient id="linearGradient9171" x1="8" x2="8" y1="16" y2="8" gradientTransform="matrix(0.875,0,0,0.875,1,0)" gradientUnits="userSpaceOnUse" xlink:href="#linearGradient4882"/></defs><metadata id="metadata4311"/><g id="layer1" transform="translate(0,-1028.3622)"><g id="titlebutton-maximize-hover-dark" transform="translate(-451,467.00002)"><g id="titlebutton-hover-5-2" transform="translate(455,565.36218)"><g id="layer1-3-0-7" transform="translate(0,-1036.3622)"><g id="g3956-09-0" transform="translate(0,1037.3622)"><g id="layer1-4-94-6-7" transform="translate(0,-1037.3622)"><path id="path4878-33-7-5" fill="url(#linearGradient9171)" fill-opacity="1" stroke="#000" stroke-dasharray="none" stroke-linejoin="miter" stroke-miterlimit="4" stroke-opacity="1" stroke-width="0" d="M 8,0 C 4.1340068,0 1,3.1340068 1,7 c 0,3.865993 3.1340068,7 7,7 3.865993,0 7,-3.134007 7,-7 C 15,3.1340068 11.865993,0 8,0 Z m 0,1 c 3.313708,0 6,2.6862915 6,6 0,3.313708 -2.686292,6 -6,6 C 4.6862915,13 2,10.313708 2,7 2,3.6862915 4.6862915,1 8,1 Z" opacity=".25" transform="translate(0,1037.3622)"/></g></g><circle id="path3894-55-4" cx="8" cy="8" r="6" fill="#000" fill-opacity=".588" stroke="#474f56" stroke-dasharray="none" stroke-dashoffset="0" stroke-linecap="butt" stroke-linejoin="miter" stroke-miterlimit="4" stroke-opacity="1" stroke-width="0" transform="translate(0,1036.3622)"/><path id="path3896-0-3" fill="#000" fill-opacity=".235" stroke="#474f56" stroke-dasharray="none" stroke-dashoffset="0" stroke-linecap="butt" stroke-linejoin="miter" stroke-miterlimit="4" stroke-opacity="1" stroke-width="0" d="m 8,1038.3622 c -3.313708,0 -6,2.6863 -6,6 0,3.3137 2.686292,6 6,6 3.31371,0 6,-2.6863 6,-6 0,-3.3137 -2.68629,-6 -6,-6 z m 0,1 c 2.76142,0 5,2.2386 5,5 0,2.7614 -2.23858,5 -5,5 -2.76142,0 -5,-2.2386 -5,-5 0,-2.7614 2.23858,-5 5,-5 z"/></g></g><path id="path4293-6-9" fill="#fff" fill-opacity="1" fill-rule="evenodd" stroke="none" d="m 461.80072,570.36209 3.38174,0 c 0.4503,0 0.81623,0.36847 0.81876,0.8188 l 0,3.3817 z m 2.40742,6.00692 -3.39508,0 c -0.45035,0 -0.81876,-0.36842 -0.81876,-0.81875 l 0,-3.39509 4.21384,4.21384" display="inline"/></g></g></svg>