<svg xmlns="http://www.w3.org/2000/svg" xmlns:svg="http://www.w3.org/2000/svg" xmlns:xlink="http://www.w3.org/1999/xlink" id="svg4306" width="24" height="24" enable-background="new" version="1.1"><defs id="defs4308"><linearGradient id="linearGradient3770"><stop id="stop3772" offset="0" stop-color="#000" stop-opacity=".628"/><stop id="stop3774" offset="1" stop-color="#000" stop-opacity=".498"/></linearGradient><linearGradient id="linearGradient4882"><stop id="stop4884" offset="0" stop-color="#fff" stop-opacity="1"/><stop id="stop4886" offset="1" stop-color="#fff" stop-opacity="0"/></linearGradient><linearGradient id="linearGradient3784-6"><stop id="stop3786-4" offset="0" stop-color="#fff" stop-opacity=".216"/><stop id="stop3788-6" offset="1" stop-color="#fff" stop-opacity="0"/></linearGradient><linearGradient id="linearGradient4257" x1="8" x2="8" y1="3" y2="11" gradientUnits="userSpaceOnUse" xlink:href="#linearGradient3784-6"/><linearGradient id="linearGradient4281" x1="8" x2="8" y1="1" y2="15" gradientTransform="matrix(0.85714286,0,0,0.85714286,5.1428571,1033.5051)" gradientUnits="userSpaceOnUse" xlink:href="#linearGradient3770"/><linearGradient id="linearGradient4283" x1="8" x2="8" y1="16" y2="8" gradientTransform="matrix(0.875,0,0,0.875,5,1033.3622)" gradientUnits="userSpaceOnUse" xlink:href="#linearGradient4882"/></defs><metadata id="metadata4311"/><g id="layer1" transform="translate(0,-1028.3622)"><path id="path4878" fill="url(#linearGradient4283)" fill-opacity="1" stroke="#000" stroke-dasharray="none" stroke-linejoin="miter" stroke-miterlimit="4" stroke-opacity="1" stroke-width="0" d="m 12,1033.3622 c -3.8659932,0 -7,3.134 -7,7 0,3.866 3.1340068,7 7,7 3.865993,0 7,-3.134 7,-7 0,-3.866 -3.134007,-7 -7,-7 z m 0,1 c 3.313708,0 6,2.6863 6,6 0,3.3137 -2.686292,6 -6,6 -3.3137085,0 -6,-2.6863 -6,-6 0,-3.3137 2.6862915,-6 6,-6 z" opacity=".25"/><path id="path4880" fill="url(#linearGradient4281)" fill-opacity="1" stroke="#000" stroke-dasharray="none" stroke-linejoin="miter" stroke-miterlimit="4" stroke-opacity="1" stroke-width="0" d="m 12,1034.3622 c -3.3137085,0 -6,2.6863 -6,6 0,3.3137 2.6862915,6 6,6 3.313709,0 6,-2.6863 6,-6 0,-3.3137 -2.686291,-6 -6,-6 z m 0,2 c 2.209139,0 4,1.7909 4,4 0,2.2091 -1.790861,4 -4,4 -2.209139,0 -4,-1.7909 -4,-4 0,-2.2091 1.790861,-4 4,-4 z"/><path id="path3812" fill="#000" fill-opacity=".238" stroke="none" d="m 12,1035.3622 c -2.7614237,0 -5,2.2386 -5,5 0,2.7614 2.2385763,5 5,5 2.761424,0 5,-2.2386 5,-5 0,-2.7614 -2.238576,-5 -5,-5 z m 0,1 c 2.209139,0 4,1.7909 4,4 0,2.2091 -1.790861,4 -4,4 -2.209139,0 -4,-1.7909 -4,-4 0,-2.2091 1.790861,-4 4,-4 z"/><path id="path3847-2" fill="#fff" fill-opacity="1" stroke="none" d="m 12,1036.3622 c -2.209139,0 -4,1.7909 -4,4 0,0.1701 0.04189,0.3355 0.0625,0.5 0.247066,-1.972 1.898481,-3.5 3.9375,-3.5 2.039019,0 3.690434,1.528 3.9375,3.5 0.02061,-0.1645 0.0625,-0.3299 0.0625,-0.5 0,-2.2091 -1.790861,-4 -4,-4 z" opacity=".25"/><path id="path3847" fill="url(#linearGradient4257)" fill-opacity="1" stroke="none" d="M 12,7 A 4,4 0 1 1 4,7 4,4 0 1 1 12,7 z" transform="translate(4,1033.3622)"/></g></svg>